<svg width="80" height="80" viewBox="0 0 80 80" fill="none" xmlns="http://www.w3.org/2000/svg">
<path d="M67.2373 0H12.7627C5.71404 0 0 5.71404 0 12.7627V67.2373C0 74.286 5.71404 80 12.7627 80H67.2373C74.286 80 80 74.286 80 67.2373V12.7627C80 5.71404 74.286 0 67.2373 0Z" fill="white"/>
<path fill-rule="evenodd" clip-rule="evenodd" d="M32.5057 70.1873H43.4106V45.0317H51.4657L53.0764 34.87H43.4106V27.1864C43.4106 24.3366 46.1377 22.726 48.7386 22.726H53.4479V14.2993L45.0213 13.9277C36.9662 13.4317 32.5057 19.7517 32.5057 27.3108V34.87H23.3359V45.0317H32.5057V70.1873Z" fill="black"/>
</svg>
