<svg width="80" height="80" viewBox="0 0 80 80" fill="none" xmlns="http://www.w3.org/2000/svg">
<path d="M67.2373 0H12.7627C5.71405 0 0 5.71404 0 12.7627V67.2373C0 74.286 5.71405 80 12.7627 80H67.2373C74.286 80 80 74.286 80 67.2373V12.7627C80 5.71404 74.286 0 67.2373 0Z" fill="white"/>
<path fill-rule="evenodd" clip-rule="evenodd" d="M28.2749 14.5625H51.7896C59.3434 14.5625 65.5567 20.7758 65.5567 28.3296V51.7216C65.5567 59.2754 59.3434 65.4887 51.7896 65.4887H28.2749C20.7211 65.4887 14.5078 59.2754 14.5078 51.7216V28.3296C14.5078 20.7758 20.7211 14.5625 28.2749 14.5625ZM53.738 23.4567C55.322 23.4567 56.6625 24.7972 56.6625 26.3812C56.6625 27.9652 55.322 29.3056 53.738 29.3056C52.0331 29.3056 50.8136 27.9652 50.8136 26.3812C50.8136 24.7972 52.0314 23.4567 53.738 23.4567ZM39.9709 26.1376H40.0936C47.6474 26.1376 53.9834 32.4736 53.9834 40.0274C53.9834 47.7021 47.6474 53.9172 40.0936 53.9172H39.9709C32.4171 53.9172 26.2038 47.7038 26.2038 40.0274C26.2038 32.4736 32.4171 26.1376 39.9709 26.1376ZM39.9709 30.8878H40.0936C45.0891 30.8878 49.2314 35.0301 49.2314 40.0256C49.2314 45.1421 45.0891 49.2843 40.0936 49.2843H39.9709C34.9754 49.2843 30.8331 45.1421 30.8331 40.0256C30.8331 35.0301 34.9754 30.8878 39.9709 30.8878ZM28.3976 18.9483H51.6669C56.906 18.9483 61.1691 23.2132 61.1691 28.4505V51.5989C61.1691 56.8381 56.9043 61.1012 51.6669 61.1012H28.3976C23.1585 61.1012 18.8954 56.8363 18.8954 51.5989V28.4505C18.8954 23.2114 23.1603 18.9483 28.3976 18.9483Z" fill="black"/>
</svg>
