<svg width="80" height="80" viewBox="0 0 80 80" fill="none" xmlns="http://www.w3.org/2000/svg">
<g clip-path="url(#clip0_42_175)">
<path d="M39.8806 23.8705H13.8161C6.54525 23.8705 0.642497 20.6996 0.458969 13.4727C0.455456 13.5877 0.441406 13.6992 0.441406 13.8151V41.3031C7.69911 50.2889 18.8012 56.0415 31.2522 56.0415H31.8511C39.1219 56.0415 42.3903 59.2124 42.5738 66.4394C42.5765 66.3244 42.5914 66.2128 42.5914 66.0969C42.5914 73.4837 39.2378 79.4716 31.8511 79.4716H66.0979C73.4847 79.4716 79.4727 73.4837 79.4727 66.0969C79.4727 37.9644 61.7468 23.8705 39.8806 23.8705Z" fill="white"/>
<path d="M79.4727 66.0979C79.4727 44.2317 61.7468 26.5059 39.8806 26.5059H13.8161C6.54525 26.5059 0.642497 20.7006 0.458969 13.4737C0.455456 13.5887 0.441406 13.7002 0.441406 13.8161C0.441406 6.42934 6.42934 0.441406 13.8161 0.441406H66.0979C73.4847 0.441406 79.4727 6.42934 79.4727 13.8161V66.0979Z" fill="white"/>
<path d="M0.441406 66.1001V38.6719C7.69911 47.6577 18.8012 53.4103 31.2522 53.4103H31.8511C39.1219 53.4103 45.0247 59.2156 45.2082 66.4426C45.2109 66.3275 45.2258 66.216 45.2258 66.1001C45.2258 73.4869 39.2378 79.4748 31.8511 79.4748H13.8161C6.42934 79.4748 0.441406 73.4869 0.441406 66.1001Z" fill="white"/>
<path d="M63.0763 43.7918C62.2781 42.6889 61.9084 41.3418 61.9102 39.9807C61.9102 39.9728 61.9102 39.9649 61.9102 39.957C61.9102 27.8328 52.0822 18.0039 39.957 18.0039C37.3051 18.0039 34.7629 18.4763 32.4096 19.3387C31.1363 19.8049 29.7418 19.8954 28.436 19.5275C27.2831 19.2025 26.0511 19.0656 24.776 19.1534C19.4159 19.5222 15.1017 23.9146 14.8233 29.2799C14.6908 31.8405 15.4591 34.2159 16.8378 36.1214C17.636 37.2243 18.0057 38.5714 18.0039 39.9324C18.0039 39.9403 18.0039 39.9483 18.0039 39.9562C18.0039 52.0804 27.8328 61.9093 39.957 61.9093C42.609 61.9093 45.1512 61.4368 47.5045 60.5745C48.7778 60.1082 50.1723 60.0178 51.478 60.3857C52.631 60.7106 53.863 60.8476 55.1381 60.7598C60.4981 60.391 64.8124 55.9986 65.0907 50.6333C65.2225 48.0735 64.455 45.6973 63.0763 43.7918ZM40.7605 36.0213C45.1872 37.0741 51.8758 38.6644 51.8758 46.0328C51.8758 49.6621 50.088 52.4317 46.8424 53.8288C44.5259 54.8263 41.9047 54.9607 39.6453 54.9607C32.7037 54.9607 28.3193 49.5628 28.1357 49.3328C26.9994 47.9076 27.233 45.8291 28.6591 44.6928C30.0843 43.5556 32.1628 43.79 33.2991 45.2152C33.3088 45.2275 35.9308 48.2386 39.6453 48.3563C44.1176 48.4986 45.1389 47.1673 45.2715 46.0319C45.433 44.6445 44.1993 43.6258 39.2317 42.4456C35.0211 41.4446 28.6582 39.9316 28.6582 33.1454C28.6582 31.0326 29.5179 24.1376 40.577 24.1376C47.5598 24.1376 51.6826 29.6364 51.8548 29.87C52.9348 31.3391 52.6196 33.4062 51.1496 34.4863C49.6867 35.5611 47.6327 35.2538 46.5491 33.8023C46.4718 33.7021 44.1123 31.0774 40.577 30.7411C37.9022 30.4865 35.2617 31.4515 35.2617 32.8767C35.2626 34.3862 36.0213 34.8938 40.7605 36.0213Z" fill="black"/>
</g>
<defs>
<clipPath id="clip0_42_175">
<rect width="80" height="80" fill="white"/>
</clipPath>
</defs>
</svg>
