<svg width="80" height="80" viewBox="0 0 80 80" fill="none" xmlns="http://www.w3.org/2000/svg">
<path d="M67.2373 0H12.7627C5.71404 0 0 5.71404 0 12.7627V67.2373C0 74.286 5.71404 80 12.7627 80H67.2373C74.286 80 80 74.286 80 67.2373V12.7627C80 5.71404 74.286 0 67.2373 0Z" fill="white"/>
<path fill-rule="evenodd" clip-rule="evenodd" d="M25.3478 23.0625C30.1336 22.6803 35.7816 22.4883 40.0892 22.4883C44.3967 22.4883 49.9487 22.6803 54.8305 23.0625C60.4785 23.5407 63.3496 24.499 64.1158 30.147C64.4981 32.7318 64.6901 36.2732 64.6901 39.9105C64.6901 43.5478 64.4981 47.1852 64.1158 49.6741C63.3496 55.4181 60.4785 56.2785 54.8305 56.7585C49.9487 57.2367 44.3967 57.3327 40.0892 57.3327C35.7816 57.3327 30.1336 57.2367 25.3478 56.7585C19.6998 56.2803 16.7327 55.4181 15.9665 49.6741C15.6785 47.1852 15.4883 43.5478 15.4883 39.9105C15.4883 36.2732 15.6803 32.7318 15.9665 30.147C16.7327 24.499 19.6998 23.5425 25.3478 23.0625Z" fill="black"/>
<path fill-rule="evenodd" clip-rule="evenodd" d="M35.1133 32.5371L47.9417 39.9078L35.1133 47.3744V32.5371Z" fill="white"/>
</svg>
