<svg width="713" height="713" viewBox="0 0 713 713" fill="none" xmlns="http://www.w3.org/2000/svg">
<g clip-path="url(#clip0_1_9)">
<path d="M552.005 0.00335693H160.997C72.0812 0.00335693 0.000854492 72.4175 0.000854492 161.745V551.262C0.000854492 640.589 72.0812 713.003 160.997 713.003H552.005C640.921 713.003 713.001 640.589 713.001 551.262V161.745C713.001 72.4175 640.921 0.00335693 552.005 0.00335693Z" fill="white"/>
<path d="M450.827 207.539H501.127L391.239 333.732L520.512 505.434H419.285L340.006 401.305L249.279 505.434H198.952L316.485 370.47L192.476 207.539H296.265L367.927 302.729L450.827 207.539ZM433.169 475.187H461.049L281.128 236.205H251.215L433.169 475.187Z" fill="#262626"/>
</g>
<defs>
<clipPath id="clip0_1_9">
<rect width="713" height="713" fill="white"/>
</clipPath>
</defs>
</svg>
